<?xml version="1.0" encoding="UTF-8" standalone="no"?>
<!-- Created with Inkscape (http://www.inkscape.org/) -->

<svg
   version="1.1"
   id="svg2"
   xml:space="preserve"
   width="1440"
   height="1440"
   viewBox="0 0 1440 1440"
   xmlns="http://www.w3.org/2000/svg"
   xmlns:svg="http://www.w3.org/2000/svg"><defs
     id="defs6"><clipPath
       clipPathUnits="userSpaceOnUse"
       id="clipPath16"><path
         d="M 0,1080 H 1080 V 0 H 0 Z"
         id="path14" /></clipPath></defs><g
     id="g8"
     transform="matrix(1.3333333,0,0,-1.3333333,0,1440)"><g
       id="g10"><g
         id="g12"
         clip-path="url(#clipPath16)"><g
           id="g18"
           transform="translate(724.9937,779.6364)"><path
             d="m 0,0 c 0.348,30.114 -23.442,54.378 -53.823,54.896 -29.058,0.496 -54.199,-23.905 -55.028,-52.466 -0.914,-31.462 24.587,-56.097 53.522,-56.632 C -24.62,-54.769 0.832,-28.736 0,0 m -164.162,-57.656 c -2.647,6.52 -5.266,12.481 -7.445,18.6 -0.797,2.24 -1.838,3.044 -4.091,3.357 -11.735,1.629 -23.452,3.394 -35.163,5.188 -4.398,0.674 -6.563,3.138 -6.578,7.542 -0.051,15.86 -0.047,31.72 -0.005,47.579 0.011,4.044 2.289,6.799 6.254,7.434 11.221,1.797 22.452,3.534 33.699,5.156 3.312,0.477 5.723,1.084 6.742,5.125 1.125,4.466 3.433,8.665 5.497,12.846 0.886,1.795 0.893,2.991 -0.364,4.585 -6.66,8.442 -13.126,17.039 -19.826,25.449 -4.448,5.584 -4.856,7.682 -0.251,13.289 10.154,12.363 21.15,23.952 33.898,33.695 5.12,3.913 7.503,3.634 12.602,-0.286 9.393,-7.222 18.731,-14.515 27.785,-21.541 5.874,2.376 11.413,4.704 17.028,6.835 1.804,0.685 2.656,1.501 2.962,3.567 1.79,12.079 3.683,24.146 5.792,36.173 0.898,5.119 3.314,6.81 8.53,6.819 14.388,0.023 28.776,0.008 43.163,0.008 8.568,0 10.5,-2.004 11.591,-10.38 1.418,-10.882 3.35,-21.696 4.912,-32.56 0.286,-1.993 1.064,-2.9 2.924,-3.609 5.05,-1.925 9.948,-4.253 15.016,-6.127 1.01,-0.374 2.758,0.217 3.736,0.943 9.313,6.919 18.521,13.979 27.786,20.962 3.594,2.709 7.546,2.749 10.704,-0.373 10.902,-10.779 21.817,-21.554 32.394,-32.649 5.727,-6.008 5.576,-8.669 0.628,-15.205 -6.192,-8.179 -12.464,-16.298 -18.8,-24.366 -1.395,-1.776 -1.497,-3.149 -0.479,-5.237 2.365,-4.852 4.573,-9.817 6.326,-14.914 0.834,-2.427 2.105,-3.344 4.364,-3.686 11.46,-1.733 22.912,-3.518 34.372,-5.259 4.875,-0.74 7.476,-3.119 7.523,-7.976 0.153,-15.503 0.146,-31.008 0.009,-46.511 -0.043,-4.862 -2.367,-7.37 -7.29,-8.198 -10.699,-1.799 -21.412,-3.546 -32.161,-4.998 -3.792,-0.512 -6.586,-1.101 -7.727,-5.56 -1.055,-4.123 -3.156,-8.016 -5.092,-11.862 -1.025,-2.037 -1.038,-3.513 0.401,-5.332 6.434,-8.132 12.671,-16.42 19.145,-24.519 5.244,-6.56 5.815,-8.769 0.226,-14.716 -10.231,-10.888 -20.793,-21.491 -31.654,-31.75 -6.105,-5.766 -9.16,-5.306 -15.82,-0.054 -8.058,6.355 -16.201,12.603 -24.231,18.994 -1.755,1.397 -3.075,1.541 -5.19,0.495 -4.621,-2.286 -9.432,-4.225 -14.277,-5.999 -1.794,-0.657 -2.384,-1.388 -2.667,-3.291 -1.811,-12.191 -3.707,-24.373 -5.852,-36.508 -0.864,-4.885 -3.333,-6.516 -8.315,-6.518 -15.132,-0.008 -30.264,-0.012 -45.395,0.001 -5.707,0.005 -8.01,2.052 -8.861,7.724 -1.755,11.706 -3.459,23.42 -5.386,35.097 -0.207,1.253 -1.523,2.78 -2.717,3.333 -4.687,2.175 -9.598,3.868 -14.287,6.039 -1.956,0.906 -3.293,0.841 -4.975,-0.465 -8.687,-6.747 -17.471,-13.369 -26.179,-20.089 -5.248,-4.049 -8.629,-3.958 -13.334,0.608 -8.802,8.541 -17.621,17.065 -26.349,25.681 -2.192,2.165 -4.152,4.586 -6.065,7.01 -3.878,4.914 -3.87,8.198 0.034,13.305 6.759,8.841 13.582,17.632 20.373,26.448 0.224,0.291 0.393,0.624 0.41,0.651"
             style="fill:#d7ecff;fill-opacity:1;fill-rule:nonzero;stroke:none"
             id="path20" /></g><g
           id="g22"
           transform="translate(907.9323,659.0405)"><path
             d="M 0,0 C 0.17,14.677 -11.425,26.503 -26.233,26.756 -40.395,26.998 -52.649,15.105 -53.053,1.184 -53.499,-14.15 -41.069,-26.157 -26.967,-26.418 -11.999,-26.694 0.406,-14.006 0,0 m -80.011,-28.101 c -1.29,3.178 -2.567,6.083 -3.629,9.065 -0.388,1.092 -0.896,1.484 -1.994,1.637 -5.72,0.793 -11.43,1.654 -17.138,2.528 -2.144,0.329 -3.199,1.53 -3.206,3.676 -0.025,7.73 -0.023,15.46 -0.002,23.19 0.005,1.971 1.115,3.313 3.048,3.623 5.468,0.876 10.942,1.722 16.424,2.513 1.615,0.233 2.79,0.528 3.286,2.498 0.549,2.176 1.673,4.223 2.679,6.261 0.432,0.875 0.436,1.458 -0.177,2.234 -3.246,4.115 -6.398,8.305 -9.663,12.404 -2.168,2.722 -2.367,3.744 -0.122,6.477 4.948,6.026 10.308,11.674 16.521,16.423 2.496,1.907 3.657,1.771 6.142,-0.14 4.579,-3.519 9.13,-7.074 13.543,-10.498 2.862,1.158 5.562,2.292 8.299,3.331 0.879,0.334 1.294,0.732 1.443,1.738 0.873,5.888 1.795,11.769 2.824,17.631 0.437,2.495 1.615,3.319 4.157,3.323 7.013,0.012 14.025,0.004 21.037,0.004 4.176,0 5.118,-0.976 5.65,-5.059 0.691,-5.304 1.632,-10.574 2.394,-15.87 0.139,-0.971 0.518,-1.413 1.425,-1.758 2.461,-0.938 4.849,-2.073 7.318,-2.987 0.493,-0.182 1.345,0.106 1.821,0.46 4.54,3.372 9.027,6.813 13.543,10.217 1.752,1.32 3.678,1.339 5.217,-0.182 5.314,-5.254 10.634,-10.505 15.789,-15.913 2.791,-2.928 2.717,-4.225 0.306,-7.41 -3.018,-3.987 -6.075,-7.944 -9.163,-11.877 -0.68,-0.865 -0.73,-1.534 -0.234,-2.552 1.153,-2.365 2.229,-4.785 3.084,-7.269 0.406,-1.183 1.026,-1.63 2.127,-1.796 5.585,-0.845 11.167,-1.715 16.752,-2.564 2.376,-0.361 3.644,-1.52 3.667,-3.887 0.075,-7.556 0.071,-15.113 0.004,-22.669 -0.021,-2.37 -1.153,-3.592 -3.553,-3.996 -5.214,-0.877 -10.436,-1.728 -15.675,-2.436 -1.848,-0.249 -3.21,-0.537 -3.766,-2.71 -0.514,-2.009 -1.538,-3.907 -2.481,-5.781 -0.5,-0.993 -0.506,-1.712 0.195,-2.599 3.136,-3.963 6.175,-8.003 9.331,-11.95 2.556,-3.198 2.834,-4.274 0.11,-7.173 -4.986,-5.306 -10.134,-10.475 -15.428,-15.475 -2.975,-2.81 -4.464,-2.586 -7.71,-0.026 -3.928,3.098 -7.896,6.143 -11.81,9.257 -0.856,0.681 -1.499,0.752 -2.53,0.242 -2.252,-1.114 -4.597,-2.059 -6.958,-2.924 -0.875,-0.32 -1.163,-0.676 -1.3,-1.604 -0.883,-5.942 -1.807,-11.879 -2.853,-17.794 -0.421,-2.381 -1.624,-3.175 -4.052,-3.177 -7.375,-0.004 -14.75,-0.005 -22.126,10e-4 -2.781,0.003 -3.904,1 -4.318,3.765 -0.856,5.705 -1.686,11.414 -2.625,17.106 -0.101,0.61 -0.743,1.354 -1.324,1.624 -2.285,1.06 -4.679,1.885 -6.964,2.944 -0.953,0.441 -1.605,0.409 -2.425,-0.227 -4.234,-3.289 -8.515,-6.516 -12.759,-9.791 -2.558,-1.974 -4.206,-1.93 -6.499,0.296 -4.29,4.163 -8.589,8.317 -12.842,12.517 -1.069,1.055 -2.024,2.235 -2.957,3.416 -1.89,2.395 -1.886,3.996 0.017,6.485 3.295,4.309 6.62,8.594 9.93,12.891 0.109,0.141 0.191,0.304 0.2,0.317"
             style="fill:#d7ecff;fill-opacity:1;fill-rule:nonzero;stroke:none"
             id="path24" /></g><g
           id="g26"
           transform="translate(388.6353,380.7748)"><path
             d="M 0,0 C 0.17,14.677 -11.425,26.503 -26.233,26.756 -40.395,26.998 -52.649,15.105 -53.053,1.184 -53.499,-14.15 -41.069,-26.157 -26.967,-26.418 -11.999,-26.694 0.406,-14.006 0,0 m -80.012,-28.101 c -1.289,3.178 -2.566,6.083 -3.628,9.065 -0.388,1.092 -0.896,1.484 -1.994,1.637 -5.72,0.793 -11.43,1.654 -17.138,2.528 -2.144,0.329 -3.199,1.53 -3.206,3.676 -0.025,7.73 -0.023,15.46 -0.002,23.19 0.005,1.971 1.115,3.314 3.048,3.623 5.468,0.876 10.942,1.722 16.424,2.513 1.615,0.233 2.79,0.528 3.286,2.498 0.549,2.176 1.673,4.223 2.679,6.261 0.432,0.875 0.436,1.458 -0.177,2.234 -3.246,4.115 -6.398,8.305 -9.663,12.404 -2.168,2.722 -2.367,3.744 -0.122,6.477 4.948,6.026 10.308,11.674 16.521,16.423 2.496,1.907 3.657,1.771 6.142,-0.14 4.579,-3.519 9.13,-7.074 13.542,-10.498 2.863,1.158 5.563,2.292 8.3,3.331 0.879,0.334 1.294,0.732 1.443,1.738 0.873,5.888 1.795,11.769 2.824,17.631 0.437,2.495 1.615,3.319 4.157,3.323 7.013,0.012 14.025,0.004 21.037,0.004 4.176,0 5.118,-0.976 5.65,-5.059 0.691,-5.304 1.632,-10.574 2.394,-15.869 0.139,-0.971 0.518,-1.414 1.425,-1.759 2.461,-0.938 4.849,-2.073 7.318,-2.987 0.493,-0.182 1.345,0.106 1.821,0.46 4.539,3.372 9.027,6.813 13.543,10.217 1.752,1.32 3.678,1.34 5.217,-0.182 5.314,-5.254 10.634,-10.505 15.789,-15.913 2.791,-2.928 2.717,-4.225 0.306,-7.41 -3.018,-3.987 -6.075,-7.944 -9.163,-11.876 -0.68,-0.866 -0.73,-1.535 -0.234,-2.553 1.153,-2.365 2.229,-4.785 3.084,-7.269 0.406,-1.183 1.026,-1.63 2.127,-1.796 5.585,-0.845 11.167,-1.715 16.752,-2.564 2.376,-0.361 3.644,-1.52 3.667,-3.887 0.075,-7.556 0.071,-15.113 0.004,-22.669 -0.021,-2.37 -1.153,-3.592 -3.553,-3.996 -5.214,-0.877 -10.436,-1.728 -15.675,-2.436 -1.848,-0.249 -3.21,-0.537 -3.766,-2.71 -0.514,-2.009 -1.538,-3.907 -2.481,-5.781 -0.5,-0.993 -0.506,-1.712 0.195,-2.599 3.136,-3.963 6.175,-8.003 9.331,-11.95 2.556,-3.198 2.834,-4.274 0.11,-7.173 -4.986,-5.306 -10.134,-10.475 -15.428,-15.475 -2.975,-2.81 -4.464,-2.586 -7.71,-0.026 -3.928,3.098 -7.896,6.143 -11.81,9.258 -0.856,0.68 -1.499,0.751 -2.53,0.241 -2.252,-1.114 -4.597,-2.059 -6.958,-2.924 -0.875,-0.32 -1.163,-0.676 -1.3,-1.604 -0.883,-5.942 -1.807,-11.879 -2.853,-17.794 -0.421,-2.381 -1.624,-3.175 -4.052,-3.177 -7.375,-0.004 -14.75,-0.005 -22.126,10e-4 -2.781,0.003 -3.904,1 -4.318,3.765 -0.856,5.705 -1.686,11.414 -2.625,17.106 -0.101,0.61 -0.743,1.354 -1.324,1.624 -2.285,1.06 -4.679,1.885 -6.964,2.944 -0.953,0.441 -1.605,0.409 -2.425,-0.227 -4.234,-3.289 -8.515,-6.516 -12.759,-9.791 -2.558,-1.974 -4.206,-1.93 -6.499,0.296 -4.29,4.163 -8.589,8.317 -12.842,12.517 -1.069,1.055 -2.024,2.235 -2.957,3.416 -1.89,2.395 -1.886,3.996 0.017,6.485 3.295,4.309 6.62,8.594 9.93,12.891 0.109,0.141 0.191,0.304 0.199,0.317"
             style="fill:#d7ecff;fill-opacity:1;fill-rule:nonzero;stroke:none"
             id="path28" /></g><g
           id="g30"
           transform="translate(521.9851,188.8421)"><path
             d="m 0,0 h -7.778 c -18.025,0 -32.637,14.612 -32.637,32.637 v 50.28 H 32.637 V 32.637 C 32.637,14.612 18.025,0 0,0"
             style="fill:#3b1f72;fill-opacity:1;fill-rule:nonzero;stroke:none"
             id="path32" /></g><g
           id="g34"
           transform="translate(631.2884,407.6588)"><path
             d="m 0,0 c -4.12,-29.872 -30.127,-132.624 -52.61,-156.444 h -126.802 c -22.471,23.82 -44.99,121.942 -49.098,151.814 -2.005,15.239 -6.161,38.026 -0.352,51.686 2.576,6.088 6.915,12.201 12.335,17.95 10.281,10.913 29.123,23.849 39.519,26.704 34.188,9.39 83.655,12.334 116.912,0.263 14.05,-5.1 48.174,-16.71 58.723,-42.693 C 3.816,36.483 2.017,15.373 0,0"
             style="fill:#e6dbfc;fill-opacity:1;fill-rule:nonzero;stroke:none"
             id="path36" /></g><g
           id="g38"
           transform="translate(631.2884,407.6588)"><path
             d="m 0,0 c -4.12,-29.872 -30.127,-132.624 -52.61,-156.444 h -15.47 c 0.218,0.523 0.437,1.033 0.656,1.544 20.599,48.004 38.853,99.422 33.019,151.327 -1.592,14.146 -5.456,28.936 -15.847,38.67 -8.787,8.228 -21.012,11.643 -32.922,13.441 -27.927,4.23 -56.462,1.106 -84.608,3.5 -16.722,1.422 -33.967,5.287 -48.745,12.968 10.281,10.913 24.512,20.514 38.257,26.165 3.986,1.64 7.851,3.597 12.165,3.852 35.389,2.151 70.875,1.118 106.009,-3.05 C -46.631,90.368 -11.922,75.263 -1.373,49.28 3.816,36.483 2.017,15.373 0,0"
             style="fill:#ddd2ff;fill-opacity:1;fill-rule:nonzero;stroke:none"
             id="path40" /></g><g
           id="g42"
           transform="translate(562.2687,488.1099)"><path
             d="m 0,0 c 0,-8.649 -20.302,-15.663 -45.346,-15.663 -25.044,0 -45.345,7.014 -45.345,15.663 0,8.651 20.301,15.663 45.345,15.663 C -20.302,15.663 0,8.651 0,0"
             style="fill:#402772;fill-opacity:1;fill-rule:nonzero;stroke:none"
             id="path44" /></g><g
           id="g46"
           transform="translate(516.923,503.7724)"><path
             d="m 0,0 c -1.167,0 -2.323,-0.015 -3.468,-0.045 23.424,-0.612 41.877,-7.37 41.877,-15.618 0,-8.246 -18.453,-15.004 -41.877,-15.616 1.145,-0.03 2.301,-0.046 3.468,-0.046 25.043,0 45.346,7.013 45.346,15.662 C 45.346,-7.012 25.043,0 0,0"
             style="fill:#a3b6bf;fill-opacity:1;fill-rule:nonzero;stroke:none"
             id="path48" /></g><g
           id="g50"
           transform="translate(540.7891,540.2881)"><path
             d="m 0,0 c -1.065,-51.705 2.489,-56.408 -3.526,-66.175 -6.122,-1.074 -13.031,-1.666 -20.335,-1.666 -7.321,0 -14.23,0.592 -20.352,1.666 -2.236,3.633 -3.526,7.893 -3.526,12.475 V 0 Z"
             style="fill:#4d2a84;fill-opacity:1;fill-rule:nonzero;stroke:none"
             id="path52" /></g><g
           id="g54"
           transform="translate(519.2026,472.4699)"><path
             d="m 0,0 c -0.753,-0.024 -1.519,-0.024 -2.285,-0.024 -1.13,0 -2.248,0.012 -3.354,0.048 C -3.707,0.085 -1.823,0.17 0,0.304 34.648,2.71 49.486,18.205 21.583,27.137 V 28.96 C 59.974,20.745 43.337,0.681 0,0"
             style="fill:#d2c0ff;fill-opacity:1;fill-rule:nonzero;stroke:none"
             id="path56" /></g><g
           id="g58"
           transform="translate(624.9889,460.637)"><path
             d="m 0,0 c -8.53,1.431 -18.806,-17.43 -22.951,-42.128 -4.145,-24.698 -0.591,-45.881 7.94,-47.313 8.531,-1.431 18.806,17.43 22.952,42.128 C 12.086,-22.614 8.532,-1.432 0,0"
             style="fill:#402772;fill-opacity:1;fill-rule:nonzero;stroke:none"
             id="path60" /></g><g
           id="g62"
           transform="translate(632.9297,413.3242)"><path
             d="m 0,0 c -0.193,-1.151 -0.399,-2.29 -0.618,-3.412 3.273,23.201 -0.337,42.52 -8.47,43.884 -8.133,1.365 -17.853,-15.716 -22.334,-38.715 0.16,1.134 0.336,2.277 0.53,3.428 4.146,24.698 14.421,43.559 22.951,42.128 C 0.591,45.88 4.145,24.698 0,0"
             style="fill:#c5b3ff;fill-opacity:1;fill-rule:nonzero;stroke:none"
             id="path64" /></g><g
           id="g66"
           transform="translate(409.1259,456.0538)"><path
             d="m 0,0 c 8.53,1.433 18.807,-17.429 22.952,-42.128 4.146,-24.698 0.59,-45.881 -7.94,-47.312 C 6.481,-90.872 -3.795,-72.011 -7.94,-47.313 -12.086,-22.614 -8.53,-1.431 0,0"
             style="fill:#402772;fill-opacity:1;fill-rule:nonzero;stroke:none"
             id="path68" /></g><g
           id="g70"
           transform="translate(401.1856,408.7409)"><path
             d="m 0,0 c 0.193,-1.15 0.4,-2.288 0.618,-3.412 -3.273,23.201 0.337,42.52 8.47,43.885 8.133,1.365 17.854,-15.716 22.334,-38.715 -0.16,1.133 -0.337,2.277 -0.53,3.427 C 26.747,29.884 16.471,48.745 7.94,47.313 -0.59,45.882 -4.146,24.698 0,0"
             style="fill:#c5b3ff;fill-opacity:1;fill-rule:nonzero;stroke:none"
             id="path72" /></g><g
           id="g74"
           transform="translate(678.1712,380.9605)"><path
             d="m 0,0 c -44,0 -69.555,36.138 -70.764,37.889 -4.569,6.609 -2.914,15.671 3.695,20.241 6.592,4.554 15.624,2.923 20.203,-3.641 1.032,-1.453 23.529,-32.396 59.852,-23.822 13.051,3.079 27.571,23.339 39.841,55.588 2.856,7.509 11.25,11.282 18.772,8.425 7.51,-2.857 11.282,-11.262 8.424,-18.772 C 63.57,32.662 43.264,7.911 19.667,2.345 12.758,0.717 6.195,0 0,0"
             style="fill:#4d2a84;fill-opacity:1;fill-rule:nonzero;stroke:none"
             id="path76" /></g><g
           id="g78"
           transform="translate(771.9696,502.4753)"><path
             d="m 0,0 c 0,0 -1.312,-8.799 -3.67,-21.401 -1.313,-7.025 -2.953,-15.228 -4.873,-23.759 l -0.827,-3.622 c -5.578,-23.989 -13.271,-49.522 -22.094,-57.774 -18.083,-16.929 -59.075,14.292 -56.316,26.359 0.498,2.176 3.938,7.9 9.017,15.483 6.636,9.941 16.079,23.09 25.327,35.729 0.729,0.997 1.458,1.981 2.187,2.966 15.009,20.416 28.924,38.694 28.924,38.694 z"
             style="fill:#e6dbfc;fill-opacity:1;fill-rule:nonzero;stroke:none"
             id="path80" /></g><g
           id="g82"
           transform="translate(351.0132,242.5344)"><path
             d="m 0,0 c -13.173,81.645 25.824,159.608 48.22,183.358 5.511,5.847 14.72,6.124 20.567,0.614 5.832,-5.494 6.121,-14.665 0.66,-20.516 C 69.009,162.975 43.419,134.556 30.374,75.068 25.4,52.387 24.847,28.691 28.728,4.635 30.007,-3.298 24.614,-10.767 16.682,-12.046 8.744,-13.326 1.28,-7.928 0,0"
             style="fill:#4d2a84;fill-opacity:1;fill-rule:nonzero;stroke:none"
             id="path84" /></g><g
           id="g86"
           transform="translate(387.8304,279.6043)"><path
             d="m 0,0 c -0.255,-1.701 -0.498,-3.403 -0.753,-5.092 -4.023,-26.992 -8.374,-52.816 -8.374,-52.816 l -4.472,0.146 -21.195,0.68 c 0,0 -2.588,7.438 -6.04,18.521 -0.68,2.2 -1.397,4.533 -2.138,6.988 -3.804,12.663 -8.143,28.365 -11.169,43.057 -0.498,2.431 -0.96,4.825 -1.361,7.183 -2.504,13.951 -3.415,26.299 -1.009,33.213 3.038,8.763 12.08,13.04 22.349,14.341 C -17.002,68.384 3.622,62.235 5.602,54.749 6.83,50.155 3.682,25.241 0,0"
             style="fill:#e6dbfc;fill-opacity:1;fill-rule:nonzero;stroke:none"
             id="path88" /></g><g
           id="g90"
           transform="translate(387.8304,279.6043)"><path
             d="m 0,0 c -0.255,-1.701 -0.498,-3.403 -0.753,-5.092 -4.023,-26.992 -8.374,-52.816 -8.374,-52.816 l -4.472,0.146 c -0.498,1.822 -0.705,3.767 -0.851,5.663 -2.054,27.356 4.63,55.319 -1.482,82.068 -1.434,6.295 -3.598,12.42 -6.393,18.241 -2.491,5.19 -5.493,10.124 -8.944,14.742 -0.742,0.996 -1.835,2.102 -2.893,3.269 C -17.002,68.384 3.622,62.235 5.602,54.749 6.83,50.155 3.682,25.241 0,0"
             style="fill:#ddd2ff;fill-opacity:1;fill-rule:nonzero;stroke:none"
             id="path92" /></g><path
           d="m 295.09,671.195 h -29.456 v 9.27 h 29.456 z"
           style="fill:#4d2a84;fill-opacity:1;fill-rule:nonzero;stroke:none"
           id="path94" /><g
           id="g96"
           transform="translate(269.734,675.8295)"><path
             d="m 0,0 c 0,-6.191 -5.019,-11.21 -11.21,-11.21 -6.192,0 -11.211,5.019 -11.211,11.21 0,6.191 5.019,11.21 11.211,11.21 C -5.019,11.21 0,6.191 0,0"
             style="fill:#7eb6ff;fill-opacity:1;fill-rule:nonzero;stroke:none"
             id="path98" /></g><path
           d="m 729.481,671.195 h 29.456 v 9.27 h -29.456 z"
           style="fill:#4d2a84;fill-opacity:1;fill-rule:nonzero;stroke:none"
           id="path100" /><g
           id="g102"
           transform="translate(754.8374,675.8295)"><path
             d="m 0,0 c 0,-6.191 5.019,-11.21 11.21,-11.21 6.192,0 11.211,5.019 11.211,11.21 0,6.191 -5.019,11.21 -11.211,11.21 C 5.019,11.21 0,6.191 0,0"
             style="fill:#7eb6ff;fill-opacity:1;fill-rule:nonzero;stroke:none"
             id="path104" /></g><g
           id="g106"
           transform="translate(744.7108,712.7681)"><path
             d="m 0,0 v -73.865 c 0,-14.413 -9.807,-26.092 -21.912,-26.092 h -420.33 c -12.104,0 -21.924,11.679 -21.924,26.092 V 0 c 0,8.592 3.488,16.224 8.884,20.964 3.646,3.232 8.155,5.128 13.04,5.128 h 420.33 c 5.056,0 9.711,-2.042 13.417,-5.469 C -3.33,15.859 0,8.398 0,0"
             style="fill:#4d2a84;fill-opacity:1;fill-rule:nonzero;stroke:none"
             id="path108" /></g><g
           id="g110"
           transform="translate(341.2729,612.8109)"><path
             d="m 0,0 h -38.804 c -12.104,0 -21.924,11.679 -21.924,26.092 v 73.865 c 0,8.592 3.488,16.224 8.884,20.964 C -51.917,83.903 -37.467,47.129 -13.563,18.715 -8.993,13.271 -4.035,8.033 -0.802,1.701 -0.523,1.142 -0.255,0.583 0,0"
             style="fill:#402772;fill-opacity:1;fill-rule:nonzero;stroke:none"
             id="path112" /></g><g
           id="g114"
           transform="translate(578.8806,522.2225)"><path
             d="M 0,0 C -46.083,6.394 -92.839,7.376 -139.301,2.861 -246.16,-7.521 -284.188,152.534 -268.95,233.09 c 7.77,41.076 53.549,70.512 92.203,79.654 70.052,16.568 144.89,17.613 215.303,2.834 37.783,-8.047 75.155,-33.679 89.868,-70.515 C 159.153,168.103 104.383,-14.483 0,0"
             style="fill:#e6dbfc;fill-opacity:1;fill-rule:nonzero;stroke:none"
             id="path116" /></g><g
           id="g118"
           transform="translate(744.7108,712.7681)"><path
             d="m 0,0 v -73.865 c 0,-14.413 -9.807,-26.092 -21.912,-26.092 h -38.427 c 0.255,0.583 0.523,1.142 0.802,1.701 3.233,6.332 8.191,11.57 12.773,17.014 23.819,28.341 38.257,64.969 38.269,101.865 C -3.33,15.859 0,8.398 0,0"
             style="fill:#402772;fill-opacity:1;fill-rule:nonzero;stroke:none"
             id="path120" /></g><g
           id="g122"
           transform="translate(707.3041,767.2855)"><path
             d="m 0,0 c -7.272,18.208 -20.081,33.677 -35.739,45.64 5.259,-7.005 9.644,-14.632 12.911,-22.812 30.729,-76.959 -24.041,-259.546 -128.423,-245.064 -46.084,6.395 -92.839,7.377 -139.302,2.862 -25.35,-2.463 -46.826,4.667 -64.638,18.051 21.196,-27.326 50.129,-44.507 87.467,-40.879 46.462,4.515 93.217,3.533 139.3,-2.861 C -24.04,-259.547 30.73,-76.96 0,0"
             style="fill:#ddd2ff;fill-opacity:1;fill-rule:nonzero;stroke:none"
             id="path124" /></g><g
           id="g126"
           transform="translate(614.0112,597.2965)"><path
             d="m 0,0 c -17.804,-6.917 -36.867,-11.159 -54.425,-13.565 -55.899,-7.658 -123.024,-3.651 -172.014,26.704 -22.001,13.631 -39.088,33.99 -43.224,60.108 -0.333,2.101 -0.666,4.203 -0.998,6.303 -7.905,49.908 28.559,95.714 78.938,99.63 60.756,4.721 121.788,4.721 182.544,0 50.378,-3.916 86.844,-49.722 78.94,-99.63 C 69.447,77.57 69.133,75.59 68.819,73.61 62.818,35.722 33.657,13.079 0,0"
             style="fill:#7eb6ff;fill-opacity:1;fill-rule:nonzero;stroke:none"
             id="path128" /></g><g
           id="g130"
           transform="translate(506.3436,835.4072)"><path
             d="M 0,0 5.003,-0.097 5.455,22.996 28.311,30.103 -3.777,39.91 5.885,45.006 6.365,69.555 1.361,69.652 0.939,48.056 -16.85,38.672 11.324,30.061 0.521,26.702 Z"
             style="fill:#583491;fill-opacity:1;fill-rule:nonzero;stroke:none"
             id="path132" /></g><g
           id="g134"
           transform="translate(499.5766,916.0645)"><path
             d="m 0,0 c -0.116,-5.988 4.642,-10.936 10.63,-11.054 5.987,-0.117 10.936,4.642 11.053,10.63 C 21.8,5.563 17.041,10.512 11.054,10.629 5.066,10.745 0.118,5.987 0,0"
             style="fill:#7eb6ff;fill-opacity:1;fill-rule:nonzero;stroke:none"
             id="path136" /></g><g
           id="g138"
           transform="translate(483.7887,828.52)"><path
             d="m 0,0 c -0.139,-7.168 12.045,-13.219 27.214,-13.515 15.17,-0.297 27.582,5.274 27.722,12.442 C 55.075,6.094 42.891,12.146 27.722,12.442 12.552,12.738 0.14,7.168 0,0"
             style="fill:#4d2a84;fill-opacity:1;fill-rule:nonzero;stroke:none"
             id="path140" /></g><g
           id="g142"
           transform="translate(631.2072,670.1992)"><path
             d="m 0,0 c -0.375,-2.665 -4.171,-2.942 -5.017,-0.387 -4.069,12.29 -15.659,21.158 -29.303,21.158 -13.657,0 -25.248,-8.868 -29.318,-21.158 -0.846,-2.555 -4.642,-2.278 -5.017,0.387 -0.139,0.989 -0.08,2.029 0.217,3.072 4.215,14.866 17.899,25.759 34.118,25.759 16.218,0 29.888,-10.893 34.103,-25.759 C 0.08,2.029 0.139,0.989 0,0"
             style="fill:#bdddff;fill-opacity:1;fill-rule:nonzero;stroke:none"
             id="path144" /></g><g
           id="g146"
           transform="translate(464.5692,670.1992)"><path
             d="m 0,0 c -0.375,-2.665 -4.171,-2.942 -5.017,-0.387 -4.07,12.29 -15.659,21.158 -29.303,21.158 -13.657,0 -25.248,-8.868 -29.318,-21.158 -0.846,-2.555 -4.642,-2.278 -5.017,0.387 -0.139,0.989 -0.08,2.029 0.217,3.072 4.215,14.866 17.899,25.759 34.118,25.759 16.218,0 29.888,-10.893 34.103,-25.759 C 0.08,2.029 0.139,0.989 0,0"
             style="fill:#bdddff;fill-opacity:1;fill-rule:nonzero;stroke:none"
             id="path148" /></g><g
           id="g150"
           transform="translate(519.2026,472.7737)"><path
             d="M 0,0 V -223.564 H -5.639 V -0.28 C -3.707,-0.219 -1.823,-0.134 0,0"
             style="fill:#d2c0ff;fill-opacity:1;fill-rule:nonzero;stroke:none"
             id="path152" /></g><g
           id="g154"
           transform="translate(569.5049,337.2798)"><path
             d="m 0,0 c -35.023,-6.703 -70.051,-6.703 -105.077,-0.001 -8.756,26.81 -8.755,53.619 0.002,80.429 35.022,6.703 70.05,6.703 105.074,0.001 C 8.754,53.619 8.756,26.809 0,0"
             style="fill:#8d68c9;fill-opacity:1;fill-rule:nonzero;stroke:none"
             id="path156" /></g><g
           id="g158"
           transform="translate(563.6671,341.7474)"><path
             d="m 0,0 c -31.133,-5.958 -62.268,-5.957 -93.402,0 -7.782,23.831 -7.782,47.661 0.001,71.493 31.133,5.958 62.268,5.957 93.399,-10e-4 C 7.783,47.662 7.783,23.831 0,0"
             style="fill:#d2c0ff;fill-opacity:1;fill-rule:nonzero;stroke:none"
             id="path160" /></g><g
           id="g162"
           transform="translate(558.4775,345.7193)"><path
             d="m 0,0 c -27.672,-5.296 -55.349,-5.296 -83.023,0 -6.919,21.183 -6.918,42.366 -0.002,63.549 27.676,5.295 55.351,5.296 83.026,-10e-4 C 6.917,42.366 6.92,21.183 0,0"
             style="fill:#7eb6ff;fill-opacity:1;fill-rule:nonzero;stroke:none"
             id="path164" /></g><g
           id="g166"
           transform="translate(562.8135,223.6466)"><path
             d="m 0,0 h -95.021 c -14.456,0 -23.991,15.049 -17.816,28.12 l 0.495,1.047 H 17.282 v 0 C 24.472,16.036 14.97,0 0,0"
             style="fill:#4d2a84;fill-opacity:1;fill-rule:nonzero;stroke:none"
             id="path168" /></g><g
           id="g170"
           transform="translate(357.3754,243.6076)"><path
             d="m 0,0 -10.379,-2.564 c -0.68,2.199 -1.397,4.533 -2.138,6.988 -3.804,12.663 -8.143,28.364 -11.169,43.057 -0.498,2.431 -0.96,4.825 -1.361,7.182 l 10.901,2.686 c 3.427,0.851 6.903,-1.252 7.741,-4.679 L 4.679,7.754 C 5.53,4.314 3.427,0.851 0,0"
             style="fill:#d2c0ff;fill-opacity:1;fill-rule:nonzero;stroke:none"
             id="path172" /></g><g
           id="g174"
           transform="translate(352.9153,250.0243)"><path
             d="m 0,0 -8.057,-1.993 c -1.604,5.311 -3.282,11.144 -4.934,17.233 -0.256,0.972 -0.523,1.956 -0.778,2.941 -2.005,7.522 -3.901,15.337 -5.457,22.883 l 8.568,2.115 c 1.021,0.255 2.054,-0.364 2.309,-1.385 L 1.398,2.297 C 1.641,1.276 1.021,0.243 0,0"
             style="fill:#4d2a84;fill-opacity:1;fill-rule:nonzero;stroke:none"
             id="path176" /></g><g
           id="g178"
           transform="translate(387.8304,279.6043)"><path
             d="m 0,0 c -0.255,-1.701 -0.498,-3.403 -0.753,-5.092 -15.58,8.556 -34.733,2.552 -34.928,2.491 L -37.176,2.03 C -36.325,2.309 -17.063,8.373 0,0"
             style="fill:#d2c0ff;fill-opacity:1;fill-rule:nonzero;stroke:none"
             id="path180" /></g><g
           id="g182"
           transform="translate(563.5727,373.2176)"><path
             d="m 0,0 h -30.698 l -3.33,11.667 -11.01,-36.386 -7.086,24.804 h -10.73 l -3.853,10.743 -4.035,-10.743 h -22.47 l -0.098,4.181 v 0.158 h 19.554 l 7.146,19.019 6.818,-19.019 h 10.95 l 3.925,-13.745 11.011,36.398 6.489,-22.738 H 0.097 Z"
             style="fill:#bdddff;fill-opacity:1;fill-rule:nonzero;stroke:none"
             id="path184" /></g><g
           id="g186"
           transform="translate(768.2995,481.0741)"><path
             d="M 0,0 C -1.313,-7.024 -2.953,-15.227 -4.873,-23.759 L -5.7,-27.38 c -5.578,-23.99 -13.271,-49.523 -22.094,-57.775 -18.083,-16.929 -59.075,14.292 -56.316,26.36 0.498,2.175 3.938,7.899 9.018,15.482 3.39,-5.007 6.659,-9.892 9.941,-12.007 10.645,-6.866 26.019,-7.231 35.255,1.446 7.753,7.292 9.637,18.655 13.405,28.62 C -12.906,-15.774 -7.195,-7.134 0,0"
             style="fill:#ddd2ff;fill-opacity:1;fill-rule:nonzero;stroke:none"
             id="path188" /></g><g
           id="g190"
           transform="translate(344.2017,266.382)"><path
             d="M 0,0 -4.278,-1.118 C -4.533,-0.146 -4.8,0.839 -5.056,1.823 l 4.29,1.118 z"
             style="fill:#8d68c9;fill-opacity:1;fill-rule:nonzero;stroke:none"
             id="path192" /></g><g
           id="g194"
           transform="translate(763.4262,457.3153)"><path
             d="m 0,0 -0.826,-3.622 c -21.608,0.936 -36.398,12.129 -44.067,19.797 0.73,0.997 1.459,1.981 2.188,2.966 C -35.559,11.861 -21.219,0.705 0,0"
             style="fill:#d2c0ff;fill-opacity:1;fill-rule:nonzero;stroke:none"
             id="path196" /></g><g
           id="g198"
           transform="translate(811.6284,578.9786)"><path
             d="m 0,0 -17.033,-30.608 17.916,-9.97 -5.878,-10.563 -49.131,27.34 5.878,10.563 17.916,-9.97 17.033,30.609 c -21.643,7.88 -46.408,-0.896 -57.965,-21.665 -12.82,-23.038 -4.54,-52.097 18.49,-64.912 23.038,-12.82 52.097,-4.54 64.917,18.498 C 23.7,-39.91 18.101,-14.246 0,0"
             style="fill:#4d2a84;fill-opacity:1;fill-rule:nonzero;stroke:none"
             id="path200" /></g><g
           id="g202"
           transform="translate(777.2518,496.1356)"><path
             d="m 0,0 -32.338,17.996 c -1.198,0.666 -2.71,0.236 -3.377,-0.963 l -4.78,-8.589 c -0.667,-1.198 -0.236,-2.71 0.962,-3.377 l 32.338,-17.996 c 1.199,-0.666 2.711,-0.236 3.378,0.963 l 4.779,8.589 C 1.629,-2.179 1.198,-0.667 0,0"
             style="fill:#d2c0ff;fill-opacity:1;fill-rule:nonzero;stroke:none"
             id="path204" /></g><g
           id="g206"
           transform="translate(364.6759,135.0909)"><path
             d="M 0,0 -1.415,29.784 -18.849,28.956 -19.337,39.234 28.47,41.506 28.959,31.227 11.526,30.399 12.941,0.615 C 32.133,4.627 46.108,22.089 45.147,42.298 44.082,64.716 25.052,82.019 2.642,80.955 -19.775,79.889 -37.079,60.859 -36.014,38.442 -35.054,18.233 -19.487,2.182 0,0"
             style="fill:#4d2a84;fill-opacity:1;fill-rule:nonzero;stroke:none"
             id="path208" /></g><g
           id="g210"
           transform="translate(352.3651,210.4419)"><path
             d="m 0,0 31.467,1.495 c 1.166,0.056 2.067,1.046 2.011,2.212 l -0.397,8.358 c -0.055,1.166 -1.045,2.066 -2.211,2.011 L -0.598,12.58 C -1.764,12.525 -2.664,11.535 -2.609,10.369 L -2.212,2.011 C -2.156,0.845 -1.166,-0.055 0,0"
             style="fill:#d2c0ff;fill-opacity:1;fill-rule:nonzero;stroke:none"
             id="path212" /></g><g
           id="g214"
           transform="translate(627.5743,132.2567)"><path
             d="m 0,0 c 0,-5.742 -48.52,-10.396 -108.372,-10.396 -59.852,0 -108.371,4.654 -108.371,10.396 0,5.742 48.519,10.396 108.371,10.396 C -48.52,10.396 0,5.742 0,0"
             style="fill:#f6f3ff;fill-opacity:1;fill-rule:nonzero;stroke:none"
             id="path216" /></g></g></g></g></svg>
